<svg width="88" height="63" viewBox="0 0 88 63" fill="none" xmlns="http://www.w3.org/2000/svg">
<path d="M16.6673 21.1919C19.2 24.494 18.5763 29.2241 15.2742 31.7568C11.972 34.2896 7.24195 33.6658 4.70922 30.3637C2.1765 27.0616 2.80024 22.3315 6.10237 19.7988C9.4045 17.266 14.1346 17.8898 16.6673 21.1919Z" fill="url(#paint0_linear_134_644)" fill-opacity="0.62" stroke="url(#paint1_linear_134_644)" stroke-width="0.175919"/>
<path d="M16.6697 30.7976C19.2025 34.0997 18.5787 38.8298 15.2766 41.3626C11.9745 43.8953 7.24439 43.2715 4.71167 39.9694C2.17894 36.6673 2.80268 31.9372 6.10481 29.4045C9.40694 26.8718 14.137 27.4955 16.6697 30.7976Z" fill="url(#paint2_linear_134_644)" fill-opacity="0.62" stroke="url(#paint3_linear_134_644)" stroke-width="0.175919"/>
<path d="M16.7132 12.0667C19.2459 15.3688 18.6222 20.0989 15.3201 22.6316C12.0179 25.1643 7.28784 24.5406 4.75512 21.2385C2.2224 17.9363 2.84614 13.2062 6.14827 10.6735C9.4504 8.1408 14.1805 8.76453 16.7132 12.0667Z" fill="url(#paint4_linear_134_644)" fill-opacity="0.62" stroke="url(#paint5_linear_134_644)" stroke-width="0.175919"/>
<path d="M33.4985 24.871C33.4985 25.643 33.357 26.2414 33.0739 26.666C32.7908 27.0777 32.4177 27.3801 31.9544 27.5731C31.4912 27.7662 30.9636 27.882 30.3717 27.9206C29.7798 27.9463 29.175 27.9592 28.5574 27.9592V44.0178H26.0868V10.6652H28.5574C29.7927 10.6652 30.7449 10.7682 31.414 10.9741C32.0831 11.1799 32.5721 11.4373 32.8809 11.7461C33.1897 12.0549 33.3699 12.3895 33.4213 12.7498C33.4728 13.1101 33.4985 13.4446 33.4985 13.7534V24.871ZM31.028 13.7534C31.028 13.4446 30.9829 13.2066 30.8929 13.0393C30.8157 12.872 30.6805 12.7498 30.4875 12.6726C30.2945 12.5954 30.0372 12.5503 29.7155 12.5375C29.4067 12.5246 29.0206 12.5182 28.5574 12.5182V26.1062C28.8662 26.1062 29.1686 26.0998 29.4646 26.0869C29.7605 26.0741 30.0243 26.029 30.2559 25.9518C30.4875 25.8746 30.6741 25.7524 30.8157 25.5851C30.9572 25.4178 31.028 25.1798 31.028 24.871V13.7534ZM42.0961 16.224H39.0079V27.3415H41.4784V29.1944H39.0079V44.0178H36.5373V14.3711H42.0961V16.224ZM47.2966 14.3711V42.1649H49.7672V44.0178H44.8261V14.3711H47.2966ZM57.1295 16.224H54.6589V27.3415H57.1295V29.1944H54.6589V42.1649H57.1295V44.0178H52.1883V14.3711H57.1295V16.224ZM62.6388 41.2384C62.6388 41.7017 62.7353 42.0234 62.9283 42.2035C63.1213 42.3836 63.3337 42.4737 63.5653 42.4737C63.7969 42.4737 64.0092 42.3836 64.2022 42.2035C64.3952 42.0234 64.4917 41.7017 64.4917 41.2384V31.0474H63.8741V29.1944H66.9623V41.2384C66.9623 41.7789 66.8658 42.2485 66.6728 42.6474C66.4798 43.0335 66.2224 43.3551 65.9007 43.6125C65.579 43.857 65.2123 44.0371 64.8006 44.1529C64.4017 44.2687 63.9899 44.3266 63.5653 44.3266C63.1406 44.3266 62.7225 44.2687 62.3107 44.1529C61.9118 44.0371 61.5515 43.857 61.2298 43.6125C60.9081 43.3551 60.6508 43.0335 60.4578 42.6474C60.2648 42.2485 60.1682 41.7789 60.1682 41.2384V16.8416C60.1682 16.3012 60.2648 15.838 60.4578 15.4519C60.6508 15.0531 60.9081 14.7314 61.2298 14.4869C61.5515 14.2295 61.9118 14.043 62.3107 13.9271C62.7225 13.8113 63.1406 13.7534 63.5653 13.7534C63.9899 13.7534 64.4017 13.8113 64.8006 13.9271C65.2123 14.043 65.579 14.2295 65.9007 14.4869C66.2224 14.7314 66.4798 15.0466 66.6728 15.4326C66.8658 15.8187 66.9623 16.2819 66.9623 16.8223V26.7239H64.4917V16.8223C64.4917 16.3591 64.3952 16.0439 64.2022 15.8766C64.0092 15.6964 63.7969 15.6064 63.5653 15.6064C63.3337 15.6064 63.1213 15.6964 62.9283 15.8766C62.7353 16.0439 62.6388 16.3591 62.6388 16.8223V41.2384ZM75.5599 16.224H73.0893V27.3415H75.5599V29.1944H73.0893V42.1649H75.5599V44.0178H70.6187V14.3711H75.5599V16.224ZM86.0103 24.2533C86.0103 25.1798 85.8559 25.8232 85.5471 26.1835C85.2383 26.5437 84.775 26.7239 84.1574 26.7239C84.4662 26.7239 84.7364 26.7947 84.9681 26.9362C85.1997 27.0777 85.3927 27.2643 85.5471 27.4959C85.7015 27.7276 85.8173 27.9913 85.8945 28.2873C85.9717 28.5832 86.0103 28.8856 86.0103 29.1944V44.0178H83.5398V28.5768C83.5398 28.268 83.469 28.0299 83.3275 27.8627C83.1859 27.6954 82.9993 27.5731 82.7677 27.4959C82.5361 27.4187 82.2723 27.3737 81.9764 27.3608C81.6804 27.348 81.378 27.3415 81.0692 27.3415V44.0178H78.5986V10.6652H81.0692C81.6868 10.6652 82.2916 10.6845 82.8835 10.7231C83.4754 10.7489 84.003 10.8582 84.4662 11.0513C84.9295 11.2443 85.3026 11.5531 85.5857 11.9777C85.8688 12.3895 86.0103 12.9814 86.0103 13.7534V24.2533ZM83.5398 13.7534C83.5398 13.4446 83.4947 13.2066 83.4047 13.0393C83.3275 12.872 83.1923 12.7498 82.9993 12.6726C82.8063 12.5954 82.549 12.5503 82.2273 12.5375C81.9185 12.5246 81.5324 12.5182 81.0692 12.5182V26.1062C81.378 26.1062 81.6804 26.0998 81.9764 26.0869C82.2723 26.0741 82.5361 26.029 82.7677 25.9518C82.9993 25.8746 83.1859 25.7524 83.3275 25.5851C83.469 25.4178 83.5398 25.1798 83.5398 24.871V13.7534Z" fill="white"/>
<path d="M5.2981 60.0442C4.63846 60.0442 4.1526 59.8101 3.84051 59.342C3.53551 58.8668 3.38302 58.1255 3.38302 57.1184C3.38302 56.1112 3.53906 55.3735 3.85115 54.9054C4.16323 54.4301 4.64555 54.1925 5.2981 54.1925C5.90809 54.1925 6.3443 54.3805 6.60674 54.7564C6.87627 55.1323 7.01103 55.6785 7.01103 56.3949H6.10669C6.10669 55.9126 6.04995 55.5544 5.93646 55.3203C5.82297 55.0862 5.61019 54.9692 5.2981 54.9692C4.95055 54.9692 4.6952 55.1323 4.53207 55.4586C4.37602 55.7849 4.298 56.2708 4.298 56.9162V57.3205C4.298 57.966 4.37602 58.4518 4.53207 58.7781C4.6952 59.1044 4.95055 59.2675 5.2981 59.2675C5.61019 59.2675 5.83007 59.1469 5.95774 58.9058C6.08541 58.6575 6.14925 58.3029 6.14925 57.8418H7.01103C7.01103 58.2319 6.95429 58.5937 6.8408 58.927C6.72732 59.2604 6.5429 59.5299 6.28756 59.7356C6.03931 59.9413 5.70949 60.0442 5.2981 60.0442ZM9.06609 60.0442C8.64761 60.0442 8.31069 59.9201 8.05535 59.6718C7.8071 59.4165 7.68297 58.9767 7.68297 58.3525V54.3202H8.5554V58.2887C8.5554 58.6788 8.62633 58.9412 8.76819 59.076C8.91714 59.2037 9.10865 59.2675 9.34271 59.2675C9.61933 59.2675 9.86049 59.1327 10.0662 58.8632C10.279 58.5937 10.3854 58.2178 10.3854 57.7354V54.3202H11.2578V59.9165H10.5982L10.4811 59.2675H10.4173C10.2612 59.5441 10.0662 59.7427 9.83212 59.8633C9.59806 59.9839 9.34271 60.0442 9.06609 60.0442ZM12.3542 59.9165V54.3202H13.2267V59.9165H12.3542ZM12.3329 53.235V52.2243H13.2373V53.235H12.3329ZM15.839 60.0442C15.3071 60.0442 14.885 59.8137 14.5729 59.3526C14.2609 58.8845 14.1048 58.1362 14.1048 57.1077C14.1048 56.4268 14.1793 55.8736 14.3282 55.448C14.4772 55.0153 14.6793 54.6997 14.9347 54.5011C15.19 54.2954 15.4702 54.1925 15.7752 54.1925C16.0447 54.1925 16.2859 54.2528 16.4987 54.3734C16.7185 54.4869 16.8746 54.6465 16.9668 54.8522H17.02V52.2243H17.8924V59.9165H17.2328L17.1157 59.2675H17.0626C16.9278 59.5228 16.754 59.7179 16.5412 59.8527C16.3284 59.9803 16.0944 60.0442 15.839 60.0442ZM16.0199 59.2675C16.3533 59.2675 16.6015 59.1044 16.7647 58.7781C16.9349 58.4518 17.02 57.966 17.02 57.3205V56.9588C17.02 56.2991 16.9349 55.8026 16.7647 55.4693C16.6015 55.1359 16.3533 54.9692 16.0199 54.9692C15.6865 54.9692 15.4347 55.1217 15.2645 55.4267C15.1014 55.7246 15.0198 56.2211 15.0198 56.9162V57.3205C15.0198 58.0156 15.1014 58.5157 15.2645 58.8207C15.4347 59.1186 15.6865 59.2675 16.0199 59.2675ZM20.0422 60.0442C19.9074 60.0442 19.7549 60.0229 19.5847 59.9803C19.4144 59.9449 19.2513 59.8739 19.0952 59.7676C18.9463 59.6541 18.8222 59.4945 18.7229 59.2888C18.6236 59.0831 18.5739 58.81 18.5739 58.4696C18.5739 57.9518 18.6945 57.5617 18.9357 57.2992C19.1839 57.0297 19.5208 56.8453 19.9464 56.746C20.3791 56.6467 20.8649 56.597 21.404 56.597V55.8736C21.404 55.604 21.3437 55.3877 21.2231 55.2246C21.1096 55.0543 20.8756 54.9692 20.5209 54.9692C20.1946 54.9692 19.9677 55.065 19.84 55.2565C19.7194 55.4409 19.6591 55.6395 19.6591 55.8523V55.9799H18.7973C18.7903 55.9445 18.7867 55.909 18.7867 55.8736C18.7867 55.8381 18.7867 55.7955 18.7867 55.7459C18.7867 55.2352 18.9534 54.8486 19.2868 54.5862C19.6272 54.3238 20.0599 54.1925 20.5848 54.1925C21.1522 54.1925 21.5742 54.3308 21.8508 54.6075C22.1346 54.877 22.2764 55.26 22.2764 55.7565V58.8951C22.2764 59.0299 22.3083 59.1256 22.3722 59.1824C22.436 59.2391 22.5034 59.2675 22.5743 59.2675H22.9148V59.8739C22.8651 59.9023 22.7906 59.9307 22.6913 59.9591C22.5991 59.9874 22.4821 60.0016 22.3402 60.0016C22.1133 60.0016 21.9218 59.9378 21.7657 59.8101C21.6168 59.6824 21.5139 59.5158 21.4572 59.3101H21.404C21.2621 59.537 21.0706 59.7179 20.8295 59.8527C20.5954 59.9803 20.333 60.0442 20.0422 60.0442ZM20.2443 59.2675C20.4287 59.2675 20.6096 59.2179 20.7869 59.1186C20.9642 59.0122 21.1096 58.8561 21.2231 58.6504C21.3437 58.4447 21.404 58.1894 21.404 57.8844V57.3737C21.021 57.3737 20.6841 57.4021 20.3932 57.4588C20.1095 57.5085 19.8861 57.6078 19.723 57.7567C19.5669 57.9057 19.4889 58.1255 19.4889 58.4164C19.4889 58.7355 19.5527 58.959 19.6804 59.0866C19.8152 59.2072 20.0031 59.2675 20.2443 59.2675ZM23.3835 59.9165V54.3202H24.0431L24.1602 54.9692H24.224C24.38 54.6926 24.5751 54.494 24.8092 54.3734C25.0432 54.2528 25.2986 54.1925 25.5752 54.1925C25.9937 54.1925 26.327 54.3202 26.5753 54.5756C26.8306 54.8238 26.9583 55.26 26.9583 55.8842V59.9165H26.0859V55.948C26.0859 55.5579 26.0114 55.299 25.8625 55.1714C25.7206 55.0366 25.5326 54.9692 25.2986 54.9692C25.0219 54.9692 24.7772 55.104 24.5645 55.3735C24.3588 55.643 24.2559 56.019 24.2559 56.5013V59.9165H23.3835ZM29.4379 60.0442C28.9059 60.0442 28.4839 59.8137 28.1718 59.3526C27.8597 58.8845 27.7036 58.1362 27.7036 57.1077C27.7036 56.4268 27.7781 55.8736 27.9271 55.448C28.076 55.0153 28.2782 54.6997 28.5335 54.5011C28.7889 54.2954 29.069 54.1925 29.374 54.1925C29.6435 54.1925 29.8847 54.2528 30.0975 54.3734C30.3174 54.4869 30.4734 54.6465 30.5656 54.8522H30.6188V52.2243H31.4912V59.9165H30.8316L30.7146 59.2675H30.6614C30.5266 59.5228 30.3528 59.7179 30.1401 59.8527C29.9273 59.9803 29.6932 60.0442 29.4379 60.0442ZM29.6187 59.2675C29.9521 59.2675 30.2003 59.1044 30.3635 58.7781C30.5337 58.4518 30.6188 57.966 30.6188 57.3205V56.9588C30.6188 56.2991 30.5337 55.8026 30.3635 55.4693C30.2003 55.1359 29.9521 54.9692 29.6187 54.9692C29.2854 54.9692 29.0336 55.1217 28.8633 55.4267C28.7002 55.7246 28.6186 56.2211 28.6186 56.9162V57.3205C28.6186 58.0156 28.7002 58.5157 28.8633 58.8207C29.0336 59.1186 29.2854 59.2675 29.6187 59.2675ZM34.2368 60.0442C33.5842 60.0442 33.0877 59.8101 32.7473 59.342C32.4068 58.8668 32.2366 58.1255 32.2366 57.1184C32.2366 56.1112 32.4068 55.3735 32.7473 54.9054C33.0877 54.4301 33.5842 54.1925 34.2368 54.1925C34.8893 54.1925 35.3858 54.4301 35.7263 54.9054C36.0667 55.3735 36.237 56.1112 36.237 57.1184C36.237 58.1255 36.0667 58.8668 35.7263 59.342C35.3858 59.8101 34.8893 60.0442 34.2368 60.0442ZM34.2368 59.2675C34.5985 59.2675 34.868 59.1044 35.0454 58.7781C35.2298 58.4518 35.322 57.966 35.322 57.3205V56.9162C35.322 56.2708 35.2298 55.7849 35.0454 55.4586C34.868 55.1323 34.5985 54.9692 34.2368 54.9692C33.875 54.9692 33.602 55.1323 33.4175 55.4586C33.2402 55.7849 33.1516 56.2708 33.1516 56.9162V57.3205C33.1516 57.966 33.2402 58.4518 33.4175 58.7781C33.602 59.1044 33.875 59.2675 34.2368 59.2675ZM40.6054 60.0442C40.0735 60.0442 39.6514 59.8137 39.3393 59.3526C39.0273 58.8845 38.8712 58.1362 38.8712 57.1077C38.8712 56.4268 38.9457 55.8736 39.0946 55.448C39.2436 55.0153 39.4457 54.6997 39.7011 54.5011C39.9564 54.2954 40.2366 54.1925 40.5416 54.1925C40.8111 54.1925 41.0523 54.2528 41.2651 54.3734C41.4849 54.4869 41.641 54.6465 41.7332 54.8522H41.7864V52.2243H42.6588V59.9165H41.9992L41.8821 59.2675H41.8289C41.6942 59.5228 41.5204 59.7179 41.3076 59.8527C41.0948 59.9803 40.8608 60.0442 40.6054 60.0442ZM40.7863 59.2675C41.1197 59.2675 41.3679 59.1044 41.531 58.7781C41.7013 58.4518 41.7864 57.966 41.7864 57.3205V56.9588C41.7864 56.2991 41.7013 55.8026 41.531 55.4693C41.3679 55.1359 41.1197 54.9692 40.7863 54.9692C40.4529 54.9692 40.2011 55.1217 40.0309 55.4267C39.8678 55.7246 39.7862 56.2211 39.7862 56.9162V57.3205C39.7862 58.0156 39.8678 58.5157 40.0309 58.8207C40.2011 59.1186 40.4529 59.2675 40.7863 59.2675ZM44.8085 60.0442C44.6738 60.0442 44.5213 60.0229 44.3511 59.9803C44.1808 59.9449 44.0177 59.8739 43.8616 59.7676C43.7127 59.6541 43.5886 59.4945 43.4893 59.2888C43.39 59.0831 43.3403 58.81 43.3403 58.4696C43.3403 57.9518 43.4609 57.5617 43.7021 57.2992C43.9503 57.0297 44.2872 56.8453 44.7128 56.746C45.1455 56.6467 45.6313 56.597 46.1704 56.597V55.8736C46.1704 55.604 46.1101 55.3877 45.9895 55.2246C45.876 55.0543 45.642 54.9692 45.2873 54.9692C44.961 54.9692 44.7341 55.065 44.6064 55.2565C44.4858 55.4409 44.4255 55.6395 44.4255 55.8523V55.9799H43.5637C43.5567 55.9445 43.5531 55.909 43.5531 55.8736C43.5531 55.8381 43.5531 55.7955 43.5531 55.7459C43.5531 55.2352 43.7198 54.8486 44.0532 54.5862C44.3936 54.3238 44.8263 54.1925 45.3512 54.1925C45.9186 54.1925 46.3406 54.3308 46.6172 54.6075C46.901 54.877 47.0428 55.26 47.0428 55.7565V58.8951C47.0428 59.0299 47.0747 59.1256 47.1386 59.1824C47.2024 59.2391 47.2698 59.2675 47.3407 59.2675H47.6812V59.8739C47.6315 59.9023 47.557 59.9307 47.4577 59.9591C47.3655 59.9874 47.2485 60.0016 47.1066 60.0016C46.8797 60.0016 46.6882 59.9378 46.5321 59.8101C46.3832 59.6824 46.2803 59.5158 46.2236 59.3101H46.1704C46.0285 59.537 45.837 59.7179 45.5959 59.8527C45.3618 59.9803 45.0994 60.0442 44.8085 60.0442ZM45.0107 59.2675C45.1951 59.2675 45.376 59.2179 45.5533 59.1186C45.7306 59.0122 45.876 58.8561 45.9895 58.6504C46.1101 58.4447 46.1704 58.1894 46.1704 57.8844V57.3737C45.7874 57.3737 45.4505 57.4021 45.1596 57.4588C44.8759 57.5085 44.6525 57.6078 44.4894 57.7567C44.3333 57.9057 44.2553 58.1255 44.2553 58.4164C44.2553 58.7355 44.3191 58.959 44.4468 59.0866C44.5816 59.2072 44.7695 59.2675 45.0107 59.2675ZM51.7624 60.0442C51.3368 60.0442 50.9892 59.9662 50.7197 59.8101C50.4573 59.647 50.2658 59.4413 50.1452 59.193C50.0246 58.9448 49.9643 58.6823 49.9643 58.4057C49.9643 58.3277 49.9643 58.271 49.9643 58.2355C49.9714 58.2 49.9749 58.1787 49.9749 58.1717H50.8899V58.278C50.8899 58.6256 50.9786 58.8809 51.1559 59.0441C51.3332 59.2001 51.5496 59.2781 51.8049 59.2781C52.0319 59.2781 52.2269 59.2072 52.3901 59.0654C52.5603 58.9235 52.6454 58.7178 52.6454 58.4483C52.6454 58.2142 52.5816 58.0333 52.4539 57.9057C52.3333 57.7709 52.1773 57.6645 51.9858 57.5865C51.7943 57.5014 51.5886 57.4234 51.3687 57.3524C51.1488 57.2744 50.9431 57.1786 50.7516 57.0652C50.5601 56.9517 50.4005 56.7956 50.2728 56.597C50.1523 56.3913 50.092 56.1218 50.092 55.7884C50.092 55.4551 50.1629 55.1714 50.3048 54.9373C50.4466 54.6961 50.6488 54.5117 50.9112 54.384C51.1736 54.2564 51.4822 54.1925 51.8368 54.1925C52.1844 54.1925 52.4752 54.2635 52.7093 54.4053C52.9504 54.5401 53.1313 54.7245 53.2519 54.9586C53.3795 55.1926 53.4434 55.448 53.4434 55.7246C53.4434 55.7601 53.4398 55.7991 53.4327 55.8416C53.4327 55.8842 53.4327 55.9126 53.4327 55.9267H52.5284V55.831C52.5284 55.6111 52.4716 55.4125 52.3582 55.2352C52.2518 55.0508 52.0496 54.9586 51.7517 54.9586C51.546 54.9586 51.3864 55.0011 51.2729 55.0862C51.1665 55.1714 51.0921 55.2742 51.0495 55.3948C51.0141 55.5083 50.9963 55.6182 50.9963 55.7246C50.9963 55.9303 51.0566 56.0899 51.1772 56.2034C51.3049 56.3169 51.4645 56.4091 51.656 56.48C51.8475 56.5509 52.0532 56.6254 52.273 56.7034C52.4929 56.7744 52.6986 56.8701 52.8901 56.9907C53.0816 57.1113 53.2377 57.2779 53.3583 57.4907C53.4859 57.6964 53.5498 57.9731 53.5498 58.3206C53.5498 58.7178 53.4717 59.0441 53.3157 59.2994C53.1597 59.5548 52.9469 59.7427 52.6773 59.8633C52.4149 59.9839 52.1099 60.0442 51.7624 60.0442ZM55.6793 60.0442C55.2608 60.0442 54.9239 59.9201 54.6686 59.6718C54.4203 59.4165 54.2962 58.9767 54.2962 58.3525V54.3202H55.1686V58.2887C55.1686 58.6788 55.2395 58.9412 55.3814 59.076C55.5303 59.2037 55.7219 59.2675 55.9559 59.2675C56.2325 59.2675 56.4737 59.1327 56.6794 58.8632C56.8922 58.5937 56.9986 58.2178 56.9986 57.7354V54.3202H57.871V59.9165H57.2114L57.0943 59.2675H57.0305C56.8744 59.5441 56.6794 59.7427 56.4453 59.8633C56.2113 59.9839 55.9559 60.0442 55.6793 60.0442ZM60.0207 60.0442C59.886 60.0442 59.7335 60.0229 59.5632 59.9803C59.393 59.9449 59.2299 59.8739 59.0738 59.7676C58.9249 59.6541 58.8008 59.4945 58.7015 59.2888C58.6021 59.0831 58.5525 58.81 58.5525 58.4696C58.5525 57.9518 58.6731 57.5617 58.9142 57.2992C59.1625 57.0297 59.4994 56.8453 59.925 56.746C60.3576 56.6467 60.8435 56.597 61.3826 56.597V55.8736C61.3826 55.604 61.3223 55.3877 61.2017 55.2246C61.0882 55.0543 60.8541 54.9692 60.4995 54.9692C60.1732 54.9692 59.9463 55.065 59.8186 55.2565C59.698 55.4409 59.6377 55.6395 59.6377 55.8523V55.9799H58.7759C58.7688 55.9445 58.7653 55.909 58.7653 55.8736C58.7653 55.8381 58.7653 55.7955 58.7653 55.7459C58.7653 55.2352 58.932 54.8486 59.2653 54.5862C59.6058 54.3238 60.0385 54.1925 60.5633 54.1925C61.1308 54.1925 61.5528 54.3308 61.8294 54.6075C62.1131 54.877 62.255 55.26 62.255 55.7565V58.8951C62.255 59.0299 62.2869 59.1256 62.3507 59.1824C62.4146 59.2391 62.482 59.2675 62.5529 59.2675H62.8934V59.8739C62.8437 59.9023 62.7692 59.9307 62.6699 59.9591C62.5777 59.9874 62.4607 60.0016 62.3188 60.0016C62.0919 60.0016 61.9003 59.9378 61.7443 59.8101C61.5954 59.6824 61.4925 59.5158 61.4358 59.3101H61.3826C61.2407 59.537 61.0492 59.7179 60.808 59.8527C60.574 59.9803 60.3115 60.0442 60.0207 60.0442ZM60.2229 59.2675C60.4073 59.2675 60.5882 59.2179 60.7655 59.1186C60.9428 59.0122 61.0882 58.8561 61.2017 58.6504C61.3223 58.4447 61.3826 58.1894 61.3826 57.8844V57.3737C60.9995 57.3737 60.6626 57.4021 60.3718 57.4588C60.0881 57.5085 59.8647 57.6078 59.7015 57.7567C59.5455 57.9057 59.4675 58.1255 59.4675 58.4164C59.4675 58.7355 59.5313 58.959 59.659 59.0866C59.7938 59.2072 59.9817 59.2675 60.2229 59.2675ZM65.4638 59.9165V54.3202H66.1234L66.2404 54.9692H66.3043C66.4532 54.6926 66.6376 54.494 66.8575 54.3734C67.0774 54.2528 67.3185 54.1925 67.581 54.1925C67.8576 54.1925 68.0988 54.2564 68.3045 54.384C68.5172 54.5046 68.6733 54.7103 68.7726 55.0011C68.9215 54.7316 69.1201 54.5294 69.3684 54.3947C69.6166 54.2599 69.872 54.1925 70.1344 54.1925C70.3969 54.1925 70.6274 54.2493 70.826 54.3628C71.0246 54.4692 71.1771 54.6465 71.2835 54.8947C71.397 55.1359 71.4537 55.4657 71.4537 55.8842V59.9165H70.5813V55.948C70.5813 55.5579 70.5103 55.299 70.3685 55.1714C70.2337 55.0366 70.0635 54.9692 69.8578 54.9692C69.5954 54.9692 69.3684 55.104 69.1769 55.3735C68.9925 55.643 68.9003 56.019 68.9003 56.5013V59.9165H68.0278V55.948C68.0278 55.5579 67.9569 55.299 67.815 55.1714C67.6803 55.0366 67.5101 54.9692 67.3044 54.9692C67.0419 54.9692 66.8149 55.104 66.6234 55.3735C66.4319 55.643 66.3362 56.019 66.3362 56.5013V59.9165H65.4638ZM73.5988 60.0442C73.464 60.0442 73.3115 60.0229 73.1413 59.9803C72.9711 59.9449 72.8079 59.8739 72.6519 59.7676C72.5029 59.6541 72.3788 59.4945 72.2795 59.2888C72.1802 59.0831 72.1305 58.81 72.1305 58.4696C72.1305 57.9518 72.2511 57.5617 72.4923 57.2992C72.7405 57.0297 73.0774 56.8453 73.503 56.746C73.9357 56.6467 74.4215 56.597 74.9606 56.597V55.8736C74.9606 55.604 74.9003 55.3877 74.7797 55.2246C74.6663 55.0543 74.4322 54.9692 74.0775 54.9692C73.7513 54.9692 73.5243 55.065 73.3966 55.2565C73.276 55.4409 73.2158 55.6395 73.2158 55.8523V55.9799H72.354C72.3469 55.9445 72.3433 55.909 72.3433 55.8736C72.3433 55.8381 72.3433 55.7955 72.3433 55.7459C72.3433 55.2352 72.51 54.8486 72.8434 54.5862C73.1838 54.3238 73.6165 54.1925 74.1414 54.1925C74.7088 54.1925 75.1308 54.3308 75.4075 54.6075C75.6912 54.877 75.833 55.26 75.833 55.7565V58.8951C75.833 59.0299 75.865 59.1256 75.9288 59.1824C75.9926 59.2391 76.06 59.2675 76.1309 59.2675H76.4714V59.8739C76.4217 59.9023 76.3473 59.9307 76.248 59.9591C76.1558 59.9874 76.0387 60.0016 75.8969 60.0016C75.6699 60.0016 75.4784 59.9378 75.3223 59.8101C75.1734 59.6824 75.0705 59.5158 75.0138 59.3101H74.9606C74.8188 59.537 74.6272 59.7179 74.3861 59.8527C74.152 59.9803 73.8896 60.0442 73.5988 60.0442ZM73.8009 59.2675C73.9853 59.2675 74.1662 59.2179 74.3435 59.1186C74.5209 59.0122 74.6663 58.8561 74.7797 58.6504C74.9003 58.4447 74.9606 58.1894 74.9606 57.8844V57.3737C74.5776 57.3737 74.2407 57.4021 73.9499 57.4588C73.6662 57.5085 73.4427 57.6078 73.2796 57.7567C73.1235 57.9057 73.0455 58.1255 73.0455 58.4164C73.0455 58.7355 73.1094 58.959 73.237 59.0866C73.3718 59.2072 73.5598 59.2675 73.8009 59.2675ZM76.9401 59.9165V54.3202H77.5998L77.7168 55.0543H77.7806C77.8515 54.8415 77.9615 54.6465 78.1104 54.4692C78.2594 54.2847 78.4651 54.1925 78.7275 54.1925C78.8481 54.1925 78.9474 54.2067 79.0254 54.2351C79.1034 54.2635 79.1425 54.2777 79.1425 54.2777V55.182H78.8552C78.6708 55.182 78.497 55.2246 78.3339 55.3097C78.1778 55.3877 78.0501 55.5225 77.9508 55.714C77.8586 55.9055 77.8125 56.1679 77.8125 56.5013V59.9165H76.9401ZM81.1899 60.0442C80.5302 60.0442 80.0444 59.8101 79.7323 59.342C79.4273 58.8668 79.2748 58.1255 79.2748 57.1184C79.2748 56.1112 79.4308 55.3735 79.7429 54.9054C80.055 54.4301 80.5373 54.1925 81.1899 54.1925C81.7998 54.1925 82.2361 54.3805 82.4985 54.7564C82.768 55.1323 82.9028 55.6785 82.9028 56.3949H81.9985C81.9985 55.9126 81.9417 55.5544 81.8282 55.3203C81.7147 55.0862 81.5019 54.9692 81.1899 54.9692C80.8423 54.9692 80.587 55.1323 80.4238 55.4586C80.2678 55.7849 80.1898 56.2708 80.1898 56.9162V57.3205C80.1898 57.966 80.2678 58.4518 80.4238 58.7781C80.587 59.1044 80.8423 59.2675 81.1899 59.2675C81.5019 59.2675 81.7218 59.1469 81.8495 58.9058C81.9772 58.6575 82.041 58.3029 82.041 57.8418H82.9028C82.9028 58.2319 82.8461 58.5937 82.7326 58.927C82.6191 59.2604 82.4347 59.5299 82.1793 59.7356C81.9311 59.9413 81.6012 60.0442 81.1899 60.0442ZM84.7663 60.0442C84.6316 60.0442 84.4791 60.0229 84.3089 59.9803C84.1386 59.9449 83.9755 59.8739 83.8194 59.7676C83.6705 59.6541 83.5464 59.4945 83.4471 59.2888C83.3478 59.0831 83.2981 58.81 83.2981 58.4696C83.2981 57.9518 83.4187 57.5617 83.6599 57.2992C83.9081 57.0297 84.245 56.8453 84.6706 56.746C85.1033 56.6467 85.5891 56.597 86.1282 56.597V55.8736C86.1282 55.604 86.0679 55.3877 85.9473 55.2246C85.8338 55.0543 85.5998 54.9692 85.2451 54.9692C84.9188 54.9692 84.6919 55.065 84.5642 55.2565C84.4436 55.4409 84.3833 55.6395 84.3833 55.8523V55.9799H83.5215C83.5144 55.9445 83.5109 55.909 83.5109 55.8736C83.5109 55.8381 83.5109 55.7955 83.5109 55.7459C83.5109 55.2352 83.6776 54.8486 84.011 54.5862C84.3514 54.3238 84.7841 54.1925 85.309 54.1925C85.8764 54.1925 86.2984 54.3308 86.575 54.6075C86.8587 54.877 87.0006 55.26 87.0006 55.7565V58.8951C87.0006 59.0299 87.0325 59.1256 87.0964 59.1824C87.1602 59.2391 87.2276 59.2675 87.2985 59.2675H87.639V59.8739C87.5893 59.9023 87.5148 59.9307 87.4155 59.9591C87.3233 59.9874 87.2063 60.0016 87.0644 60.0016C86.8375 60.0016 86.646 59.9378 86.4899 59.8101C86.341 59.6824 86.2381 59.5158 86.1814 59.3101H86.1282C85.9863 59.537 85.7948 59.7179 85.5537 59.8527C85.3196 59.9803 85.0572 60.0442 84.7663 60.0442ZM84.9685 59.2675C85.1529 59.2675 85.3338 59.2179 85.5111 59.1186C85.6884 59.0122 85.8338 58.8561 85.9473 58.6504C86.0679 58.4447 86.1282 58.1894 86.1282 57.8844V57.3737C85.7452 57.3737 85.4083 57.4021 85.1174 57.4588C84.8337 57.5085 84.6103 57.6078 84.4472 57.7567C84.2911 57.9057 84.2131 58.1255 84.2131 58.4164C84.2131 58.7355 84.2769 58.959 84.4046 59.0866C84.5394 59.2072 84.7273 59.2675 84.9685 59.2675Z" fill="white"/>
<defs>
<linearGradient id="paint0_linear_134_644" x1="3.48602" y1="23.2774" x2="16.6136" y2="27.8349" gradientUnits="userSpaceOnUse">
<stop offset="1.3e-07" stop-color="#4567B7"/>
<stop offset="0.54" stop-color="#6495ED"/>
<stop offset="1" stop-color="#7A288A"/>
</linearGradient>
<linearGradient id="paint1_linear_134_644" x1="3.48602" y1="23.2774" x2="16.6136" y2="27.8349" gradientUnits="userSpaceOnUse">
<stop offset="1.3e-07" stop-color="#4567B7"/>
<stop offset="0.54" stop-color="#6495ED"/>
<stop offset="1" stop-color="#7A288A"/>
</linearGradient>
<linearGradient id="paint2_linear_134_644" x1="3.48846" y1="32.8831" x2="16.616" y2="37.4406" gradientUnits="userSpaceOnUse">
<stop offset="1.3e-07" stop-color="#4567B7"/>
<stop offset="0.54" stop-color="#6495ED"/>
<stop offset="1" stop-color="#7A288A"/>
</linearGradient>
<linearGradient id="paint3_linear_134_644" x1="3.48846" y1="32.8831" x2="16.616" y2="37.4406" gradientUnits="userSpaceOnUse">
<stop offset="1.3e-07" stop-color="#4567B7"/>
<stop offset="0.54" stop-color="#6495ED"/>
<stop offset="1" stop-color="#7A288A"/>
</linearGradient>
<linearGradient id="paint4_linear_134_644" x1="3.53192" y1="14.1521" x2="16.6595" y2="18.7097" gradientUnits="userSpaceOnUse">
<stop offset="1.3e-07" stop-color="#4567B7"/>
<stop offset="0.54" stop-color="#6495ED"/>
<stop offset="1" stop-color="#7A288A"/>
</linearGradient>
<linearGradient id="paint5_linear_134_644" x1="3.53192" y1="14.1521" x2="16.6595" y2="18.7097" gradientUnits="userSpaceOnUse">
<stop offset="1.3e-07" stop-color="#4567B7"/>
<stop offset="0.54" stop-color="#6495ED"/>
<stop offset="1" stop-color="#7A288A"/>
</linearGradient>
</defs>
</svg>
