<svg width="88" height="63" viewBox="0 0 88 63" fill="none" xmlns="http://www.w3.org/2000/svg">
<path d="M16.6673 21.1919C19.2 24.494 18.5763 29.2241 15.2742 31.7568C11.972 34.2896 7.24195 33.6658 4.70922 30.3637C2.1765 27.0616 2.80024 22.3315 6.10237 19.7988C9.4045 17.266 14.1346 17.8898 16.6673 21.1919Z" fill="url(#paint0_linear_134_768)" fill-opacity="0.62" stroke="url(#paint1_linear_134_768)" stroke-width="0.175919"/>
<path d="M16.6695 30.7976C19.2022 34.0997 18.5785 38.8298 15.2764 41.3626C11.9742 43.8953 7.24414 43.2715 4.71142 39.9694C2.1787 36.6673 2.80243 31.9372 6.10456 29.4045C9.40669 26.8718 14.1368 27.4955 16.6695 30.7976Z" fill="url(#paint2_linear_134_768)" fill-opacity="0.62" stroke="url(#paint3_linear_134_768)" stroke-width="0.175919"/>
<path d="M16.713 12.0667C19.2457 15.3688 18.622 20.0989 15.3198 22.6316C12.0177 25.1643 7.2876 24.5406 4.75488 21.2385C2.22216 17.9363 2.84589 13.2062 6.14802 10.6735C9.45015 8.1408 14.1802 8.76453 16.713 12.0667Z" fill="url(#paint4_linear_134_768)" fill-opacity="0.62" stroke="url(#paint5_linear_134_768)" stroke-width="0.175919"/>
<path d="M33.4985 24.871C33.4985 25.643 33.357 26.2414 33.0739 26.666C32.7908 27.0777 32.4177 27.3801 31.9544 27.5731C31.4912 27.7662 30.9636 27.882 30.3717 27.9206C29.7798 27.9463 29.175 27.9592 28.5574 27.9592V44.0178H26.0868V10.6652H28.5574C29.7927 10.6652 30.7449 10.7682 31.414 10.9741C32.0831 11.1799 32.5721 11.4373 32.8809 11.7461C33.1897 12.0549 33.3699 12.3895 33.4213 12.7498C33.4728 13.1101 33.4985 13.4446 33.4985 13.7534V24.871ZM31.028 13.7534C31.028 13.4446 30.9829 13.2066 30.8929 13.0393C30.8157 12.872 30.6805 12.7498 30.4875 12.6726C30.2945 12.5954 30.0372 12.5503 29.7155 12.5375C29.4067 12.5246 29.0206 12.5182 28.5574 12.5182V26.1062C28.8662 26.1062 29.1686 26.0998 29.4646 26.0869C29.7605 26.0741 30.0243 26.029 30.2559 25.9518C30.4875 25.8746 30.6741 25.7524 30.8157 25.5851C30.9572 25.4178 31.028 25.1798 31.028 24.871V13.7534ZM42.0961 16.224H39.0079V27.3415H41.4784V29.1944H39.0079V44.0178H36.5373V14.3711H42.0961V16.224ZM47.2966 14.3711V42.1649H49.7672V44.0178H44.8261V14.3711H47.2966ZM57.1295 16.224H54.6589V27.3415H57.1295V29.1944H54.6589V42.1649H57.1295V44.0178H52.1883V14.3711H57.1295V16.224ZM62.6388 41.2384C62.6388 41.7017 62.7353 42.0234 62.9283 42.2035C63.1213 42.3836 63.3337 42.4737 63.5653 42.4737C63.7969 42.4737 64.0092 42.3836 64.2022 42.2035C64.3952 42.0234 64.4917 41.7017 64.4917 41.2384V31.0474H63.8741V29.1944H66.9623V41.2384C66.9623 41.7789 66.8658 42.2485 66.6728 42.6474C66.4798 43.0335 66.2224 43.3551 65.9007 43.6125C65.579 43.857 65.2123 44.0371 64.8006 44.1529C64.4017 44.2687 63.9899 44.3266 63.5653 44.3266C63.1406 44.3266 62.7225 44.2687 62.3107 44.1529C61.9118 44.0371 61.5515 43.857 61.2298 43.6125C60.9081 43.3551 60.6508 43.0335 60.4578 42.6474C60.2648 42.2485 60.1682 41.7789 60.1682 41.2384V16.8416C60.1682 16.3012 60.2648 15.838 60.4578 15.4519C60.6508 15.0531 60.9081 14.7314 61.2298 14.4869C61.5515 14.2295 61.9118 14.043 62.3107 13.9271C62.7225 13.8113 63.1406 13.7534 63.5653 13.7534C63.9899 13.7534 64.4017 13.8113 64.8006 13.9271C65.2123 14.043 65.579 14.2295 65.9007 14.4869C66.2224 14.7314 66.4798 15.0466 66.6728 15.4326C66.8658 15.8187 66.9623 16.2819 66.9623 16.8223V26.7239H64.4917V16.8223C64.4917 16.3591 64.3952 16.0439 64.2022 15.8766C64.0092 15.6964 63.7969 15.6064 63.5653 15.6064C63.3337 15.6064 63.1213 15.6964 62.9283 15.8766C62.7353 16.0439 62.6388 16.3591 62.6388 16.8223V41.2384ZM75.5599 16.224H73.0893V27.3415H75.5599V29.1944H73.0893V42.1649H75.5599V44.0178H70.6187V14.3711H75.5599V16.224ZM86.0103 24.2533C86.0103 25.1798 85.8559 25.8232 85.5471 26.1835C85.2383 26.5437 84.775 26.7239 84.1574 26.7239C84.4662 26.7239 84.7364 26.7947 84.9681 26.9362C85.1997 27.0777 85.3927 27.2643 85.5471 27.4959C85.7015 27.7276 85.8173 27.9913 85.8945 28.2873C85.9717 28.5832 86.0103 28.8856 86.0103 29.1944V44.0178H83.5398V28.5768C83.5398 28.268 83.469 28.0299 83.3275 27.8627C83.1859 27.6954 82.9993 27.5731 82.7677 27.4959C82.5361 27.4187 82.2723 27.3737 81.9764 27.3608C81.6804 27.348 81.378 27.3415 81.0692 27.3415V44.0178H78.5986V10.6652H81.0692C81.6868 10.6652 82.2916 10.6845 82.8835 10.7231C83.4754 10.7489 84.003 10.8582 84.4662 11.0513C84.9295 11.2443 85.3026 11.5531 85.5857 11.9777C85.8688 12.3895 86.0103 12.9814 86.0103 13.7534V24.2533ZM83.5398 13.7534C83.5398 13.4446 83.4947 13.2066 83.4047 13.0393C83.3275 12.872 83.1923 12.7498 82.9993 12.6726C82.8063 12.5954 82.549 12.5503 82.2273 12.5375C81.9185 12.5246 81.5324 12.5182 81.0692 12.5182V26.1062C81.378 26.1062 81.6804 26.0998 81.9764 26.0869C82.2723 26.0741 82.5361 26.029 82.7677 25.9518C82.9993 25.8746 83.1859 25.7524 83.3275 25.5851C83.469 25.4178 83.5398 25.1798 83.5398 24.871V13.7534Z" fill="#1D1D1D"/>
<path d="M5.29785 60.0442C4.63821 60.0442 4.15235 59.8101 3.84026 59.342C3.53527 58.8668 3.38277 58.1255 3.38277 57.1184C3.38277 56.1112 3.53882 55.3735 3.8509 54.9054C4.16299 54.4301 4.64531 54.1925 5.29785 54.1925C5.90784 54.1925 6.34406 54.3805 6.60649 54.7564C6.87602 55.1323 7.01079 55.6785 7.01079 56.3949H6.10644C6.10644 55.9126 6.0497 55.5544 5.93621 55.3203C5.82273 55.0862 5.60994 54.9692 5.29785 54.9692C4.9503 54.9692 4.69496 55.1323 4.53182 55.4586C4.37578 55.7849 4.29776 56.2708 4.29776 56.9162V57.3205C4.29776 57.966 4.37578 58.4518 4.53182 58.7781C4.69496 59.1044 4.9503 59.2675 5.29785 59.2675C5.60994 59.2675 5.82982 59.1469 5.95749 58.9058C6.08517 58.6575 6.149 58.3029 6.149 57.8418H7.01079C7.01079 58.2319 6.95405 58.5937 6.84056 58.927C6.72707 59.2604 6.54266 59.5299 6.28731 59.7356C6.03906 59.9413 5.70924 60.0442 5.29785 60.0442ZM9.06584 60.0442C8.64736 60.0442 8.31045 59.9201 8.05511 59.6718C7.80686 59.4165 7.68273 58.9767 7.68273 58.3525V54.3202H8.55516V58.2887C8.55516 58.6788 8.62608 58.9412 8.76794 59.076C8.91689 59.2037 9.1084 59.2675 9.34247 59.2675C9.61909 59.2675 9.86025 59.1327 10.0659 58.8632C10.2787 58.5937 10.3851 58.2178 10.3851 57.7354V54.3202H11.2575V59.9165H10.5979L10.4809 59.2675H10.417C10.261 59.5441 10.0659 59.7427 9.83188 59.8633C9.59781 59.9839 9.34247 60.0442 9.06584 60.0442ZM12.354 59.9165V54.3202H13.2264V59.9165H12.354ZM12.3327 53.235V52.2243H13.237V53.235H12.3327ZM15.8388 60.0442C15.3068 60.0442 14.8848 59.8137 14.5727 59.3526C14.2606 58.8845 14.1046 58.1362 14.1046 57.1077C14.1046 56.4268 14.179 55.8736 14.328 55.448C14.4769 55.0153 14.6791 54.6997 14.9344 54.5011C15.1898 54.2954 15.47 54.1925 15.7749 54.1925C16.0445 54.1925 16.2856 54.2528 16.4984 54.3734C16.7183 54.4869 16.8743 54.6465 16.9666 54.8522H17.0198V52.2243H17.8922V59.9165H17.2325L17.1155 59.2675H17.0623C16.9275 59.5228 16.7538 59.7179 16.541 59.8527C16.3282 59.9803 16.0941 60.0442 15.8388 60.0442ZM16.0197 59.2675C16.353 59.2675 16.6013 59.1044 16.7644 58.7781C16.9346 58.4518 17.0198 57.966 17.0198 57.3205V56.9588C17.0198 56.2991 16.9346 55.8026 16.7644 55.4693C16.6013 55.1359 16.353 54.9692 16.0197 54.9692C15.6863 54.9692 15.4345 55.1217 15.2643 55.4267C15.1011 55.7246 15.0196 56.2211 15.0196 56.9162V57.3205C15.0196 58.0156 15.1011 58.5157 15.2643 58.8207C15.4345 59.1186 15.6863 59.2675 16.0197 59.2675ZM20.0419 60.0442C19.9071 60.0442 19.7546 60.0229 19.5844 59.9803C19.4142 59.9449 19.251 59.8739 19.095 59.7676C18.9461 59.6541 18.8219 59.4945 18.7226 59.2888C18.6233 59.0831 18.5737 58.81 18.5737 58.4696C18.5737 57.9518 18.6943 57.5617 18.9354 57.2992C19.1837 57.0297 19.5206 56.8453 19.9462 56.746C20.3788 56.6467 20.8647 56.597 21.4037 56.597V55.8736C21.4037 55.604 21.3435 55.3877 21.2229 55.2246C21.1094 55.0543 20.8753 54.9692 20.5207 54.9692C20.1944 54.9692 19.9674 55.065 19.8398 55.2565C19.7192 55.4409 19.6589 55.6395 19.6589 55.8523V55.9799H18.7971C18.79 55.9445 18.7865 55.909 18.7865 55.8736C18.7865 55.8381 18.7865 55.7955 18.7865 55.7459C18.7865 55.2352 18.9531 54.8486 19.2865 54.5862C19.627 54.3238 20.0596 54.1925 20.5845 54.1925C21.1519 54.1925 21.574 54.3308 21.8506 54.6075C22.1343 54.877 22.2762 55.26 22.2762 55.7565V58.8951C22.2762 59.0299 22.3081 59.1256 22.3719 59.1824C22.4358 59.2391 22.5031 59.2675 22.5741 59.2675H22.9145V59.8739C22.8649 59.9023 22.7904 59.9307 22.6911 59.9591C22.5989 59.9874 22.4819 60.0016 22.34 60.0016C22.113 60.0016 21.9215 59.9378 21.7655 59.8101C21.6165 59.6824 21.5137 59.5158 21.4569 59.3101H21.4037C21.2619 59.537 21.0704 59.7179 20.8292 59.8527C20.5952 59.9803 20.3327 60.0442 20.0419 60.0442ZM20.2441 59.2675C20.4285 59.2675 20.6093 59.2179 20.7867 59.1186C20.964 59.0122 21.1094 58.8561 21.2229 58.6504C21.3435 58.4447 21.4037 58.1894 21.4037 57.8844V57.3737C21.0207 57.3737 20.6838 57.4021 20.393 57.4588C20.1093 57.5085 19.8859 57.6078 19.7227 57.7567C19.5667 57.9057 19.4887 58.1255 19.4887 58.4164C19.4887 58.7355 19.5525 58.959 19.6802 59.0866C19.8149 59.2072 20.0029 59.2675 20.2441 59.2675ZM23.3832 59.9165V54.3202H24.0429L24.1599 54.9692H24.2237C24.3798 54.6926 24.5748 54.494 24.8089 54.3734C25.043 54.2528 25.2983 54.1925 25.5749 54.1925C25.9934 54.1925 26.3268 54.3202 26.575 54.5756C26.8304 54.8238 26.9581 55.26 26.9581 55.8842V59.9165H26.0856V55.948C26.0856 55.5579 26.0112 55.299 25.8622 55.1714C25.7204 55.0366 25.5324 54.9692 25.2983 54.9692C25.0217 54.9692 24.777 55.104 24.5642 55.3735C24.3585 55.643 24.2557 56.019 24.2557 56.5013V59.9165H23.3832ZM29.4376 60.0442C28.9056 60.0442 28.4836 59.8137 28.1715 59.3526C27.8594 58.8845 27.7034 58.1362 27.7034 57.1077C27.7034 56.4268 27.7779 55.8736 27.9268 55.448C28.0758 55.0153 28.2779 54.6997 28.5333 54.5011C28.7886 54.2954 29.0688 54.1925 29.3738 54.1925C29.6433 54.1925 29.8845 54.2528 30.0972 54.3734C30.3171 54.4869 30.4732 54.6465 30.5654 54.8522H30.6186V52.2243H31.491V59.9165H30.8314L30.7143 59.2675H30.6611C30.5264 59.5228 30.3526 59.7179 30.1398 59.8527C29.927 59.9803 29.693 60.0442 29.4376 60.0442ZM29.6185 59.2675C29.9518 59.2675 30.2001 59.1044 30.3632 58.7781C30.5335 58.4518 30.6186 57.966 30.6186 57.3205V56.9588C30.6186 56.2991 30.5335 55.8026 30.3632 55.4693C30.2001 55.1359 29.9518 54.9692 29.6185 54.9692C29.2851 54.9692 29.0333 55.1217 28.8631 55.4267C28.6999 55.7246 28.6184 56.2211 28.6184 56.9162V57.3205C28.6184 58.0156 28.6999 58.5157 28.8631 58.8207C29.0333 59.1186 29.2851 59.2675 29.6185 59.2675ZM34.2365 60.0442C33.584 60.0442 33.0875 59.8101 32.747 59.342C32.4066 58.8668 32.2363 58.1255 32.2363 57.1184C32.2363 56.1112 32.4066 55.3735 32.747 54.9054C33.0875 54.4301 33.584 54.1925 34.2365 54.1925C34.8891 54.1925 35.3856 54.4301 35.726 54.9054C36.0665 55.3735 36.2367 56.1112 36.2367 57.1184C36.2367 58.1255 36.0665 58.8668 35.726 59.342C35.3856 59.8101 34.8891 60.0442 34.2365 60.0442ZM34.2365 59.2675C34.5983 59.2675 34.8678 59.1044 35.0451 58.7781C35.2295 58.4518 35.3217 57.966 35.3217 57.3205V56.9162C35.3217 56.2708 35.2295 55.7849 35.0451 55.4586C34.8678 55.1323 34.5983 54.9692 34.2365 54.9692C33.8748 54.9692 33.6017 55.1323 33.4173 55.4586C33.24 55.7849 33.1513 56.2708 33.1513 56.9162V57.3205C33.1513 57.966 33.24 58.4518 33.4173 58.7781C33.6017 59.1044 33.8748 59.2675 34.2365 59.2675ZM40.6052 60.0442C40.0732 60.0442 39.6512 59.8137 39.3391 59.3526C39.027 58.8845 38.871 58.1362 38.871 57.1077C38.871 56.4268 38.9454 55.8736 39.0944 55.448C39.2433 55.0153 39.4455 54.6997 39.7008 54.5011C39.9562 54.2954 40.2363 54.1925 40.5413 54.1925C40.8109 54.1925 41.052 54.2528 41.2648 54.3734C41.4847 54.4869 41.6407 54.6465 41.7329 54.8522H41.7861V52.2243H42.6586V59.9165H41.9989L41.8819 59.2675H41.8287C41.6939 59.5228 41.5202 59.7179 41.3074 59.8527C41.0946 59.9803 40.8605 60.0442 40.6052 60.0442ZM40.786 59.2675C41.1194 59.2675 41.3677 59.1044 41.5308 58.7781C41.701 58.4518 41.7861 57.966 41.7861 57.3205V56.9588C41.7861 56.2991 41.701 55.8026 41.5308 55.4693C41.3677 55.1359 41.1194 54.9692 40.786 54.9692C40.4527 54.9692 40.2009 55.1217 40.0307 55.4267C39.8675 55.7246 39.7859 56.2211 39.7859 56.9162V57.3205C39.7859 58.0156 39.8675 58.5157 40.0307 58.8207C40.2009 59.1186 40.4527 59.2675 40.786 59.2675ZM44.8083 60.0442C44.6735 60.0442 44.521 60.0229 44.3508 59.9803C44.1806 59.9449 44.0174 59.8739 43.8614 59.7676C43.7125 59.6541 43.5883 59.4945 43.489 59.2888C43.3897 59.0831 43.3401 58.81 43.3401 58.4696C43.3401 57.9518 43.4607 57.5617 43.7018 57.2992C43.9501 57.0297 44.287 56.8453 44.7125 56.746C45.1452 56.6467 45.6311 56.597 46.1701 56.597V55.8736C46.1701 55.604 46.1098 55.3877 45.9893 55.2246C45.8758 55.0543 45.6417 54.9692 45.2871 54.9692C44.9608 54.9692 44.7338 55.065 44.6062 55.2565C44.4856 55.4409 44.4253 55.6395 44.4253 55.8523V55.9799H43.5635C43.5564 55.9445 43.5529 55.909 43.5529 55.8736C43.5529 55.8381 43.5529 55.7955 43.5529 55.7459C43.5529 55.2352 43.7195 54.8486 44.0529 54.5862C44.3934 54.3238 44.826 54.1925 45.3509 54.1925C45.9183 54.1925 46.3404 54.3308 46.617 54.6075C46.9007 54.877 47.0426 55.26 47.0426 55.7565V58.8951C47.0426 59.0299 47.0745 59.1256 47.1383 59.1824C47.2022 59.2391 47.2695 59.2675 47.3405 59.2675H47.6809V59.8739C47.6313 59.9023 47.5568 59.9307 47.4575 59.9591C47.3653 59.9874 47.2483 60.0016 47.1064 60.0016C46.8794 60.0016 46.6879 59.9378 46.5319 59.8101C46.3829 59.6824 46.2801 59.5158 46.2233 59.3101H46.1701C46.0283 59.537 45.8368 59.7179 45.5956 59.8527C45.3615 59.9803 45.0991 60.0442 44.8083 60.0442ZM45.0105 59.2675C45.1949 59.2675 45.3757 59.2179 45.5531 59.1186C45.7304 59.0122 45.8758 58.8561 45.9893 58.6504C46.1098 58.4447 46.1701 58.1894 46.1701 57.8844V57.3737C45.7871 57.3737 45.4502 57.4021 45.1594 57.4588C44.8757 57.5085 44.6523 57.6078 44.4891 57.7567C44.3331 57.9057 44.2551 58.1255 44.2551 58.4164C44.2551 58.7355 44.3189 58.959 44.4466 59.0866C44.5813 59.2072 44.7693 59.2675 45.0105 59.2675ZM51.7621 60.0442C51.3365 60.0442 50.989 59.9662 50.7195 59.8101C50.457 59.647 50.2655 59.4413 50.1449 59.193C50.0243 58.9448 49.9641 58.6823 49.9641 58.4057C49.9641 58.3277 49.9641 58.271 49.9641 58.2355C49.9712 58.2 49.9747 58.1787 49.9747 58.1717H50.8897V58.278C50.8897 58.6256 50.9783 58.8809 51.1557 59.0441C51.333 59.2001 51.5493 59.2781 51.8047 59.2781C52.0316 59.2781 52.2267 59.2072 52.3898 59.0654C52.5601 58.9235 52.6452 58.7178 52.6452 58.4483C52.6452 58.2142 52.5813 58.0333 52.4537 57.9057C52.3331 57.7709 52.177 57.6645 51.9855 57.5865C51.794 57.5014 51.5883 57.4234 51.3685 57.3524C51.1486 57.2744 50.9429 57.1786 50.7514 57.0652C50.5599 56.9517 50.4003 56.7956 50.2726 56.597C50.152 56.3913 50.0917 56.1218 50.0917 55.7884C50.0917 55.4551 50.1627 55.1714 50.3045 54.9373C50.4464 54.6961 50.6485 54.5117 50.911 54.384C51.1734 54.2564 51.4819 54.1925 51.8366 54.1925C52.1841 54.1925 52.4749 54.2635 52.709 54.4053C52.9502 54.5401 53.131 54.7245 53.2516 54.9586C53.3793 55.1926 53.4431 55.448 53.4431 55.7246C53.4431 55.7601 53.4396 55.7991 53.4325 55.8416C53.4325 55.8842 53.4325 55.9126 53.4325 55.9267H52.5281V55.831C52.5281 55.6111 52.4714 55.4125 52.3579 55.2352C52.2515 55.0508 52.0494 54.9586 51.7515 54.9586C51.5458 54.9586 51.3862 55.0011 51.2727 55.0862C51.1663 55.1714 51.0918 55.2742 51.0493 55.3948C51.0138 55.5083 50.9961 55.6182 50.9961 55.7246C50.9961 55.9303 51.0564 56.0899 51.1769 56.2034C51.3046 56.3169 51.4642 56.4091 51.6557 56.48C51.8472 56.5509 52.0529 56.6254 52.2728 56.7034C52.4927 56.7744 52.6984 56.8701 52.8899 56.9907C53.0814 57.1113 53.2374 57.2779 53.358 57.4907C53.4857 57.6964 53.5495 57.9731 53.5495 58.3206C53.5495 58.7178 53.4715 59.0441 53.3155 59.2994C53.1594 59.5548 52.9466 59.7427 52.6771 59.8633C52.4147 59.9839 52.1097 60.0442 51.7621 60.0442ZM55.6791 60.0442C55.2606 60.0442 54.9237 59.9201 54.6683 59.6718C54.4201 59.4165 54.2959 58.9767 54.2959 58.3525V54.3202H55.1684V58.2887C55.1684 58.6788 55.2393 58.9412 55.3812 59.076C55.5301 59.2037 55.7216 59.2675 55.9557 59.2675C56.2323 59.2675 56.4735 59.1327 56.6792 58.8632C56.8919 58.5937 56.9983 58.2178 56.9983 57.7354V54.3202H57.8708V59.9165H57.2111L57.0941 59.2675H57.0302C56.8742 59.5441 56.6792 59.7427 56.4451 59.8633C56.211 59.9839 55.9557 60.0442 55.6791 60.0442ZM60.0205 60.0442C59.8857 60.0442 59.7332 60.0229 59.563 59.9803C59.3928 59.9449 59.2296 59.8739 59.0736 59.7676C58.9246 59.6541 58.8005 59.4945 58.7012 59.2888C58.6019 59.0831 58.5523 58.81 58.5523 58.4696C58.5523 57.9518 58.6728 57.5617 58.914 57.2992C59.1622 57.0297 59.4992 56.8453 59.9247 56.746C60.3574 56.6467 60.8433 56.597 61.3823 56.597V55.8736C61.3823 55.604 61.322 55.3877 61.2015 55.2246C61.088 55.0543 60.8539 54.9692 60.4993 54.9692C60.173 54.9692 59.946 55.065 59.8183 55.2565C59.6978 55.4409 59.6375 55.6395 59.6375 55.8523V55.9799H58.7757C58.7686 55.9445 58.765 55.909 58.765 55.8736C58.765 55.8381 58.765 55.7955 58.765 55.7459C58.765 55.2352 58.9317 54.8486 59.2651 54.5862C59.6056 54.3238 60.0382 54.1925 60.5631 54.1925C61.1305 54.1925 61.5525 54.3308 61.8292 54.6075C62.1129 54.877 62.2547 55.26 62.2547 55.7565V58.8951C62.2547 59.0299 62.2867 59.1256 62.3505 59.1824C62.4143 59.2391 62.4817 59.2675 62.5526 59.2675H62.8931V59.8739C62.8435 59.9023 62.769 59.9307 62.6697 59.9591C62.5775 59.9874 62.4604 60.0016 62.3186 60.0016C62.0916 60.0016 61.9001 59.9378 61.7441 59.8101C61.5951 59.6824 61.4923 59.5158 61.4355 59.3101H61.3823C61.2405 59.537 61.049 59.7179 60.8078 59.8527C60.5737 59.9803 60.3113 60.0442 60.0205 60.0442ZM60.2226 59.2675C60.407 59.2675 60.5879 59.2179 60.7652 59.1186C60.9426 59.0122 61.088 58.8561 61.2015 58.6504C61.322 58.4447 61.3823 58.1894 61.3823 57.8844V57.3737C60.9993 57.3737 60.6624 57.4021 60.3716 57.4588C60.0879 57.5085 59.8644 57.6078 59.7013 57.7567C59.5453 57.9057 59.4672 58.1255 59.4672 58.4164C59.4672 58.7355 59.5311 58.959 59.6587 59.0866C59.7935 59.2072 59.9815 59.2675 60.2226 59.2675ZM65.4635 59.9165V54.3202H66.1231L66.2402 54.9692H66.304C66.453 54.6926 66.6374 54.494 66.8573 54.3734C67.0771 54.2528 67.3183 54.1925 67.5807 54.1925C67.8574 54.1925 68.0985 54.2564 68.3042 54.384C68.517 54.5046 68.673 54.7103 68.7723 55.0011C68.9213 54.7316 69.1199 54.5294 69.3681 54.3947C69.6164 54.2599 69.8717 54.1925 70.1342 54.1925C70.3966 54.1925 70.6271 54.2493 70.8257 54.3628C71.0243 54.4692 71.1768 54.6465 71.2832 54.8947C71.3967 55.1359 71.4535 55.4657 71.4535 55.8842V59.9165H70.581V55.948C70.581 55.5579 70.5101 55.299 70.3682 55.1714C70.2335 55.0366 70.0632 54.9692 69.8576 54.9692C69.5951 54.9692 69.3681 55.104 69.1766 55.3735C68.9922 55.643 68.9 56.019 68.9 56.5013V59.9165H68.0276V55.948C68.0276 55.5579 67.9567 55.299 67.8148 55.1714C67.68 55.0366 67.5098 54.9692 67.3041 54.9692C67.0417 54.9692 66.8147 55.104 66.6232 55.3735C66.4317 55.643 66.3359 56.019 66.3359 56.5013V59.9165H65.4635ZM73.5985 60.0442C73.4638 60.0442 73.3113 60.0229 73.141 59.9803C72.9708 59.9449 72.8077 59.8739 72.6516 59.7676C72.5027 59.6541 72.3786 59.4945 72.2793 59.2888C72.18 59.0831 72.1303 58.81 72.1303 58.4696C72.1303 57.9518 72.2509 57.5617 72.492 57.2992C72.7403 57.0297 73.0772 56.8453 73.5028 56.746C73.9354 56.6467 74.4213 56.597 74.9604 56.597V55.8736C74.9604 55.604 74.9001 55.3877 74.7795 55.2246C74.666 55.0543 74.4319 54.9692 74.0773 54.9692C73.751 54.9692 73.5241 55.065 73.3964 55.2565C73.2758 55.4409 73.2155 55.6395 73.2155 55.8523V55.9799H72.3537C72.3466 55.9445 72.3431 55.909 72.3431 55.8736C72.3431 55.8381 72.3431 55.7955 72.3431 55.7459C72.3431 55.2352 72.5098 54.8486 72.8431 54.5862C73.1836 54.3238 73.6163 54.1925 74.1411 54.1925C74.7086 54.1925 75.1306 54.3308 75.4072 54.6075C75.6909 54.877 75.8328 55.26 75.8328 55.7565V58.8951C75.8328 59.0299 75.8647 59.1256 75.9285 59.1824C75.9924 59.2391 76.0598 59.2675 76.1307 59.2675H76.4712V59.8739C76.4215 59.9023 76.347 59.9307 76.2477 59.9591C76.1555 59.9874 76.0385 60.0016 75.8966 60.0016C75.6697 60.0016 75.4781 59.9378 75.3221 59.8101C75.1732 59.6824 75.0703 59.5158 75.0136 59.3101H74.9604C74.8185 59.537 74.627 59.7179 74.3858 59.8527C74.1518 59.9803 73.8893 60.0442 73.5985 60.0442ZM73.8007 59.2675C73.9851 59.2675 74.166 59.2179 74.3433 59.1186C74.5206 59.0122 74.666 58.8561 74.7795 58.6504C74.9001 58.4447 74.9604 58.1894 74.9604 57.8844V57.3737C74.5773 57.3737 74.2404 57.4021 73.9496 57.4588C73.6659 57.5085 73.4425 57.6078 73.2793 57.7567C73.1233 57.9057 73.0453 58.1255 73.0453 58.4164C73.0453 58.7355 73.1091 58.959 73.2368 59.0866C73.3716 59.2072 73.5595 59.2675 73.8007 59.2675ZM76.9399 59.9165V54.3202H77.5995L77.7165 55.0543H77.7804C77.8513 54.8415 77.9612 54.6465 78.1102 54.4692C78.2591 54.2847 78.4648 54.1925 78.7273 54.1925C78.8479 54.1925 78.9472 54.2067 79.0252 54.2351C79.1032 54.2635 79.1422 54.2777 79.1422 54.2777V55.182H78.8549C78.6705 55.182 78.4968 55.2246 78.3336 55.3097C78.1776 55.3877 78.0499 55.5225 77.9506 55.714C77.8584 55.9055 77.8123 56.1679 77.8123 56.5013V59.9165H76.9399ZM81.1896 60.0442C80.53 60.0442 80.0441 59.8101 79.732 59.342C79.427 58.8668 79.2745 58.1255 79.2745 57.1184C79.2745 56.1112 79.4306 55.3735 79.7427 54.9054C80.0548 54.4301 80.5371 54.1925 81.1896 54.1925C81.7996 54.1925 82.2358 54.3805 82.4983 54.7564C82.7678 55.1323 82.9026 55.6785 82.9026 56.3949H81.9982C81.9982 55.9126 81.9415 55.5544 81.828 55.3203C81.7145 55.0862 81.5017 54.9692 81.1896 54.9692C80.8421 54.9692 80.5867 55.1323 80.4236 55.4586C80.2675 55.7849 80.1895 56.2708 80.1895 56.9162V57.3205C80.1895 57.966 80.2675 58.4518 80.4236 58.7781C80.5867 59.1044 80.8421 59.2675 81.1896 59.2675C81.5017 59.2675 81.7216 59.1469 81.8493 58.9058C81.9769 58.6575 82.0408 58.3029 82.0408 57.8418H82.9026C82.9026 58.2319 82.8458 58.5937 82.7323 58.927C82.6188 59.2604 82.4344 59.5299 82.1791 59.7356C81.9308 59.9413 81.601 60.0442 81.1896 60.0442ZM84.7661 60.0442C84.6313 60.0442 84.4788 60.0229 84.3086 59.9803C84.1384 59.9449 83.9752 59.8739 83.8192 59.7676C83.6702 59.6541 83.5461 59.4945 83.4468 59.2888C83.3475 59.0831 83.2979 58.81 83.2979 58.4696C83.2979 57.9518 83.4185 57.5617 83.6596 57.2992C83.9079 57.0297 84.2448 56.8453 84.6703 56.746C85.103 56.6467 85.5889 56.597 86.1279 56.597V55.8736C86.1279 55.604 86.0676 55.3877 85.9471 55.2246C85.8336 55.0543 85.5995 54.9692 85.2449 54.9692C84.9186 54.9692 84.6916 55.065 84.564 55.2565C84.4434 55.4409 84.3831 55.6395 84.3831 55.8523V55.9799H83.5213C83.5142 55.9445 83.5107 55.909 83.5107 55.8736C83.5107 55.8381 83.5107 55.7955 83.5107 55.7459C83.5107 55.2352 83.6773 54.8486 84.0107 54.5862C84.3512 54.3238 84.7838 54.1925 85.3087 54.1925C85.8761 54.1925 86.2982 54.3308 86.5748 54.6075C86.8585 54.877 87.0004 55.26 87.0004 55.7565V58.8951C87.0004 59.0299 87.0323 59.1256 87.0961 59.1824C87.16 59.2391 87.2273 59.2675 87.2983 59.2675H87.6387V59.8739C87.5891 59.9023 87.5146 59.9307 87.4153 59.9591C87.3231 59.9874 87.2061 60.0016 87.0642 60.0016C86.8372 60.0016 86.6457 59.9378 86.4897 59.8101C86.3407 59.6824 86.2379 59.5158 86.1811 59.3101H86.1279C85.9861 59.537 85.7946 59.7179 85.5534 59.8527C85.3193 59.9803 85.0569 60.0442 84.7661 60.0442ZM84.9682 59.2675C85.1527 59.2675 85.3335 59.2179 85.5109 59.1186C85.6882 59.0122 85.8336 58.8561 85.9471 58.6504C86.0676 58.4447 86.1279 58.1894 86.1279 57.8844V57.3737C85.7449 57.3737 85.408 57.4021 85.1172 57.4588C84.8335 57.5085 84.6101 57.6078 84.4469 57.7567C84.2909 57.9057 84.2129 58.1255 84.2129 58.4164C84.2129 58.7355 84.2767 58.959 84.4044 59.0866C84.5391 59.2072 84.7271 59.2675 84.9682 59.2675Z" fill="#1D1D1D"/>
<defs>
<linearGradient id="paint0_linear_134_768" x1="3.48602" y1="23.2774" x2="16.6136" y2="27.8349" gradientUnits="userSpaceOnUse">
<stop offset="1.3e-07" stop-color="#4567B7"/>
<stop offset="0.54" stop-color="#6495ED"/>
<stop offset="1" stop-color="#7A288A"/>
</linearGradient>
<linearGradient id="paint1_linear_134_768" x1="3.48602" y1="23.2774" x2="16.6136" y2="27.8349" gradientUnits="userSpaceOnUse">
<stop offset="1.3e-07" stop-color="#4567B7"/>
<stop offset="0.54" stop-color="#6495ED"/>
<stop offset="1" stop-color="#7A288A"/>
</linearGradient>
<linearGradient id="paint2_linear_134_768" x1="3.48822" y1="32.8831" x2="16.6158" y2="37.4406" gradientUnits="userSpaceOnUse">
<stop offset="1.3e-07" stop-color="#4567B7"/>
<stop offset="0.54" stop-color="#6495ED"/>
<stop offset="1" stop-color="#7A288A"/>
</linearGradient>
<linearGradient id="paint3_linear_134_768" x1="3.48822" y1="32.8831" x2="16.6158" y2="37.4406" gradientUnits="userSpaceOnUse">
<stop offset="1.3e-07" stop-color="#4567B7"/>
<stop offset="0.54" stop-color="#6495ED"/>
<stop offset="1" stop-color="#7A288A"/>
</linearGradient>
<linearGradient id="paint4_linear_134_768" x1="3.53167" y1="14.1521" x2="16.6593" y2="18.7097" gradientUnits="userSpaceOnUse">
<stop offset="1.3e-07" stop-color="#4567B7"/>
<stop offset="0.54" stop-color="#6495ED"/>
<stop offset="1" stop-color="#7A288A"/>
</linearGradient>
<linearGradient id="paint5_linear_134_768" x1="3.53167" y1="14.1521" x2="16.6593" y2="18.7097" gradientUnits="userSpaceOnUse">
<stop offset="1.3e-07" stop-color="#4567B7"/>
<stop offset="0.54" stop-color="#6495ED"/>
<stop offset="1" stop-color="#7A288A"/>
</linearGradient>
</defs>
</svg>
